<?xml version="1.0" encoding="UTF-8"?>
<svg id="_Слой_1" data-name="Слой 1" xmlns="http://www.w3.org/2000/svg" viewBox="0 0 545.38 211.2">
  <defs>
    <style>
      .cls-1 {
        letter-spacing: -.05em;
      }

      .cls-2 {
        letter-spacing: -.08em;
      }

      .cls-3 {
        letter-spacing: -.02em;
      }

      .cls-4 {
        letter-spacing: -.02em;
      }

      .cls-5 {
        letter-spacing: -.09em;
      }

      .cls-6 {
        letter-spacing: -.09em;
      }

      .cls-7 {
        fill: #3798d4;
      }

      .cls-8 {
        letter-spacing: -.14em;
      }

      .cls-9 {
        fill: #113e71;
        font-family: HiraKakuStd-W8-83pv-RKSJ-H, 'Hiragino Kaku Gothic Std';
        font-size: 32px;
      }

      .cls-10 {
        letter-spacing: -.05em;
      }

      .cls-11 {
        letter-spacing: -.1em;
      }

      .cls-12 {
        letter-spacing: -.05em;
      }

      .cls-13 {
        letter-spacing: -.1em;
      }

      .cls-14 {
        letter-spacing: -.03em;
      }

      .cls-15 {
        letter-spacing: -.06em;
      }

      .cls-16 {
        letter-spacing: -.06em;
      }

      .cls-17 {
        letter-spacing: -.04em;
      }

      .cls-18 {
        letter-spacing: -.1em;
      }

      .cls-19 {
        fill: #727272;
        font-family: Arial-Black, 'Arial Black';
        font-size: 19px;
        font-weight: 800;
        letter-spacing: .6em;
      }
    </style>
  </defs>
  <g>
    <polygon class="cls-7" points="463.36 118.37 455.85 109.82 453.22 107.97 446.9 107.97 443.74 107.71 359.21 31.34 343.14 27.91 334.45 25.54 200.93 14.75 191.72 23.7 182.24 26.33 161.17 40.03 57.15 134.57 29.76 159.72 38.05 176.84 30.55 186.98 35.68 184.87 47.67 202.65 544.66 204.35 0 211.2 0 203.83 16.33 188.29 5.53 176.97 8.16 159.33 17.51 148 20.54 147.74 168.81 21.59 177.5 21.86 179.6 20.28 195.93 3.16 330.5 15.27 337.09 14.75 348.67 21.59 362.37 22.65 449.8 101.92 455.06 102.44 460.07 104.81 468.23 115.08 463.36 118.37"/>
    <polygon class="cls-7" points="264.66 10.01 271.77 3.69 274.93 5.79 318.12 4.74 318.12 6.58 334.71 6.06 339.19 0 343.14 .79 353.94 8.95 361.31 24.75 357.89 23.17 353.94 14.22 342.35 9.48 337.09 16.06 330.76 17.38 333.4 8.69 318.21 9.17 318.21 10.89 279.68 11.32 264.66 10.01"/>
    <polygon class="cls-7" points="333.84 23.88 333.92 28.44 186.71 22.38 182.24 25.28 182.54 30.86 178.99 39.15 178.51 40.34 158.27 54.34 156.96 52.93 127.11 73.83 120.35 74 109.6 84.71 122.46 84.27 126.23 79.05 160.25 57.32 159.54 56.27 180.09 42.71 183.55 42.93 188.82 36.34 189.57 28.05 191.45 26.6 333.13 32.66 341.83 26.73 333.84 23.88"/>
    <polygon class="cls-7" points="42.93 145.1 38.71 153.66 38.58 156.96 31.21 167.09 33.05 169.2 40.16 158.54 42.14 158.54 62.41 127.59 42.93 145.1"/>
  </g>
  <text class="cls-9" transform="translate(78.14 155.7)"><tspan class="cls-6" x="0" y="0">Т</tspan><tspan class="cls-4" x="29.22" y="0">Д</tspan><tspan x="60.54" y="0"> </tspan><tspan class="cls-14" x="71.2" y="0"> </tspan><tspan class="cls-11" x="80.99" y="0">Л</tspan><tspan class="cls-5" x="109.89" y="0">Е</tspan><tspan class="cls-12" x="139.14" y="0">Н</tspan><tspan class="cls-17" x="169.6" y="0">И</tspan><tspan class="cls-18" x="200.16" y="0">Н</tspan><tspan class="cls-8" x="228.99" y="0">Г</tspan><tspan class="cls-13" x="256.64" y="0">Р</tspan><tspan class="cls-16" x="285.38" y="0">А</tspan><tspan class="cls-15" x="315.49" y="0">Д</tspan><tspan class="cls-2" x="345.7" y="0">С</tspan><tspan class="cls-10" x="375.17" y="0">К</tspan><tspan class="cls-1" x="405.44" y="0">И</tspan><tspan class="cls-3" x="435.97" y="0">Й</tspan></text>
  <text class="cls-19" transform="translate(86.11 192.11)"><tspan x="0" y="0" xml:space="preserve">ПРОЧНОЕ  БУДУЩЕЕ</tspan></text>
</svg>