<svg width="57" height="58" viewBox="0 0 57 58" fill="none" xmlns="http://www.w3.org/2000/svg">
<g clip-path="url(#clip0_88_256)">
<path fill-rule="evenodd" clip-rule="evenodd" d="M-1.05175e-06 37.9062C-1.05175e-06 36.489 0.562999 35.1298 1.56515 34.1276C2.56729 33.1255 3.9265 32.5625 5.34375 32.5625H8.90625C10.3235 32.5625 11.6827 33.1255 12.6849 34.1276C13.687 35.1298 14.25 36.489 14.25 37.9062V41.4688C14.25 42.886 13.687 44.2452 12.6849 45.2474C11.6827 46.2495 10.3235 46.8125 8.90625 46.8125H5.34375C3.9265 46.8125 2.56729 46.2495 1.56515 45.2474C0.562999 44.2452 -1.05175e-06 42.886 -1.05175e-06 41.4688V37.9062ZM5.34375 36.125C4.87133 36.125 4.41826 36.3127 4.08421 36.6467C3.75017 36.9808 3.5625 37.4338 3.5625 37.9062V41.4688C3.5625 41.9412 3.75017 42.3942 4.08421 42.7283C4.41826 43.0623 4.87133 43.25 5.34375 43.25H8.90625C9.37867 43.25 9.83173 43.0623 10.1658 42.7283C10.4998 42.3942 10.6875 41.9412 10.6875 41.4688V37.9062C10.6875 37.4338 10.4998 36.9808 10.1658 36.6467C9.83173 36.3127 9.37867 36.125 8.90625 36.125H5.34375ZM42.75 37.9062C42.75 36.489 43.313 35.1298 44.3151 34.1276C45.3173 33.1255 46.6765 32.5625 48.0938 32.5625H51.6562C53.0735 32.5625 54.4327 33.1255 55.4349 34.1276C56.437 35.1298 57 36.489 57 37.9062V41.4688C57 42.886 56.437 44.2452 55.4349 45.2474C54.4327 46.2495 53.0735 46.8125 51.6562 46.8125H48.0938C46.6765 46.8125 45.3173 46.2495 44.3151 45.2474C43.313 44.2452 42.75 42.886 42.75 41.4688V37.9062ZM48.0938 36.125C47.6213 36.125 47.1683 36.3127 46.8342 36.6467C46.5002 36.9808 46.3125 37.4338 46.3125 37.9062V41.4688C46.3125 41.9412 46.5002 42.3942 46.8342 42.7283C47.1683 43.0623 47.6213 43.25 48.0938 43.25H51.6562C52.1287 43.25 52.5817 43.0623 52.9158 42.7283C53.2498 42.3942 53.4375 41.9412 53.4375 41.4688V37.9062C53.4375 37.4338 53.2498 36.9808 52.9158 36.6467C52.5817 36.3127 52.1287 36.125 51.6562 36.125H48.0938ZM21.375 16.5312C21.375 15.114 21.938 13.7548 22.9401 12.7526C23.9423 11.7505 25.3015 11.1875 26.7187 11.1875H30.2812C31.6985 11.1875 33.0577 11.7505 34.0599 12.7526C35.062 13.7548 35.625 15.114 35.625 16.5312V20.0938C35.625 21.511 35.062 22.8702 34.0599 23.8724C33.0577 24.8745 31.6985 25.4375 30.2812 25.4375H26.7187C25.3015 25.4375 23.9423 24.8745 22.9401 23.8724C21.938 22.8702 21.375 21.511 21.375 20.0938V16.5312ZM26.7187 14.75C26.2463 14.75 25.7933 14.9377 25.4592 15.2717C25.1252 15.6058 24.9375 16.0588 24.9375 16.5312V20.0938C24.9375 20.5662 25.1252 21.0192 25.4592 21.3533C25.7933 21.6873 26.2463 21.875 26.7187 21.875H30.2812C30.7537 21.875 31.2067 21.6873 31.5408 21.3533C31.8748 21.0192 32.0625 20.5662 32.0625 20.0938V16.5312C32.0625 16.0588 31.8748 15.6058 31.5408 15.2717C31.2067 14.9377 30.7537 14.75 30.2812 14.75H26.7187Z" fill="#113E71"/>
<path d="M21.375 16.5312H6.64762C6.25551 15.8521 5.65025 15.3213 4.92572 15.0212C4.20119 14.7211 3.39787 14.6684 2.64037 14.8714C1.88286 15.0744 1.2135 15.5216 0.736087 16.1438C0.258679 16.766 -9.15527e-05 17.5283 -9.15527e-05 18.3125C-9.15527e-05 19.0967 0.258679 19.859 0.736087 20.4812C1.2135 21.1034 1.88286 21.5506 2.64037 21.7536C3.39787 21.9566 4.20119 21.9039 4.92572 21.6038C5.65025 21.3037 6.25551 20.7729 6.64762 20.0938H16.1524C11.5647 22.9901 8.13626 27.4017 6.46237 32.5625H8.90625C9.34444 32.5625 9.7755 32.6159 10.1816 32.7157C11.1684 30.1327 12.689 27.7869 14.6442 25.8317C16.5994 23.8765 18.9452 22.3559 21.5282 21.3691C21.4261 20.9517 21.3747 20.5235 21.375 20.0938V16.5312ZM35.4718 21.3691C35.574 20.9517 35.6254 20.5235 35.625 20.0938V16.5312H50.3524C50.7445 15.8521 51.3497 15.3213 52.0743 15.0212C52.7988 14.7211 53.6021 14.6684 54.3596 14.8714C55.1171 15.0744 55.7865 15.5216 56.2639 16.1438C56.7413 16.766 57.0001 17.5283 57.0001 18.3125C57.0001 19.0967 56.7413 19.859 56.2639 20.4812C55.7865 21.1034 55.1171 21.5506 54.3596 21.7536C53.6021 21.9566 52.7988 21.9039 52.0743 21.6038C51.3497 21.3037 50.7445 20.7729 50.3524 20.0938H40.8476C45.4353 22.9901 48.8637 27.4017 50.5376 32.5625H48.0938C47.6556 32.5625 47.2281 32.6159 46.8184 32.7157C45.8316 30.1327 44.311 27.7869 42.3558 25.8317C40.4006 23.8765 38.0548 22.3559 35.4718 21.3691Z" fill="#113E71"/>
</g>
<defs>
<clipPath id="clip0_88_256">
<rect width="57" height="57" fill="white" transform="translate(0 0.5)"/>
</clipPath>
</defs>
</svg>
