<svg xmlns="http://www.w3.org/2000/svg"
 width="1366.000000pt" height="722.000000pt" viewBox="0 0 1366.000000 722.000000"
 preserveAspectRatio="xMidYMid meet">
<defs>
  <linearGradient id="logoGradient" x1="0%" y1="0%" x2="100%" y2="0%">
    <stop offset="0%" style="stop-color:#4F46E5;stop-opacity:1" />
    <stop offset="100%" style="stop-color:#9333EA;stop-opacity:1" />
  </linearGradient>
</defs>
<g transform="translate(0.000000,722.000000) scale(0.100000,-0.100000)"
fill="#4F46E5" stroke="none">
<path d="M7989 6276 c-2 -2 -67 -9 -144 -15 -77 -6 -167 -16 -200 -21 -207
-33 -341 -59 -445 -86 -30 -8 -71 -19 -90 -24 -96 -25 -187 -52 -201 -60 -9
-5 -33 -12 -53 -15 -20 -4 -39 -11 -42 -16 -3 -5 -12 -9 -21 -9 -8 0 -29 -6
-46 -14 -18 -7 -52 -21 -77 -31 -25 -9 -54 -21 -65 -26 -11 -4 -45 -18 -75
-30 -212 -87 -592 -305 -785 -452 -260 -198 -526 -452 -683 -652 -29 -37 -159
-214 -169 -230 -120 -193 -136 -223 -137 -255 -1 -22 4 -35 12 -35 7 0 90 77
185 170 95 94 186 181 202 194 17 13 59 50 95 80 76 66 184 152 255 204 28 20
55 40 60 45 6 4 69 46 140 94 163 107 299 186 486 280 134 68 178 88 299 140
25 11 59 26 77 34 17 8 37 14 45 14 8 0 18 4 23 8 17 15 197 78 370 129 131
38 379 94 505 113 36 5 90 14 120 19 180 33 375 43 699 38 412 -7 553 -24 966
-113 59 -12 110 -25 230 -58 78 -22 261 -84 302 -102 17 -8 37 -14 45 -14 8 0
18 -4 24 -8 5 -5 32 -17 59 -27 28 -9 78 -30 113 -46 35 -16 66 -29 68 -29 12
0 324 -157 382 -192 34 -21 64 -38 67 -38 18 0 411 -258 514 -337 213 -163
370 -296 535 -453 38 -36 74 -69 80 -75 7 -5 30 -27 52 -48 27 -25 46 -36 57
-31 26 9 21 26 -30 112 -364 603 -1055 1192 -1748 1492 -27 11 -59 25 -70 30
-105 47 -345 132 -475 170 -175 49 -234 65 -335 85 -44 9 -100 21 -125 26 -59
12 -163 27 -280 39 -52 5 -131 14 -176 20 -75 9 -586 15 -595 6z" fill="url(#logoGradient)"/>
<path d="M3065 6080 c-22 -5 -71 -13 -110 -19 -38 -6 -92 -15 -120 -21 -47 -9
-308 -53 -420 -71 -27 -4 -90 -15 -140 -23 -49 -9 -125 -21 -168 -28 -64 -9
-81 -15 -93 -34 -11 -16 -13 -28 -6 -41 6 -10 67 -74 137 -143 98 -97 125
-128 117 -140 -9 -15 -99 -95 -208 -183 -393 -322 -684 -611 -913 -907 -28
-36 -55 -71 -61 -78 -6 -7 -45 -63 -85 -125 -41 -61 -78 -117 -82 -123 -16
-21 -105 -186 -150 -276 -47 -94 -116 -268 -142 -358 -12 -41 -26 -88 -30
-105 -40 -134 -60 -348 -49 -510 16 -224 94 -416 226 -557 122 -129 186 -171
438 -290 30 -14 126 -15 131 -2 2 6 -22 31 -54 54 -152 114 -240 241 -298 430
-21 68 -32 364 -17 460 18 114 59 261 102 365 7 17 16 39 20 50 45 112 168
338 263 480 33 48 162 224 199 270 159 198 493 531 734 731 161 134 341 274
351 274 4 0 67 -59 140 -132 124 -124 133 -131 156 -121 19 9 27 24 35 65 13
64 35 160 57 248 9 36 23 92 30 125 8 33 21 89 30 125 9 36 20 85 25 108 6 24
14 60 20 80 5 21 23 96 40 167 17 72 36 146 41 165 6 20 9 49 7 65 -3 29 -5
30 -58 31 -30 1 -73 -2 -95 -6z" fill="url(#logoGradient)"/>
<path d="M9362 4371 c-84 -21 -162 -131 -162 -228 0 -71 36 -152 86 -189 33
-26 47 -29 118 -32 75 -2 84 -1 127 27 129 82 131 305 4 393 -44 30 -118 42
-173 29z" fill="url(#logoGradient)"/>
<path d="M2090 3210 l0 -1050 463 0 c482 1 629 8 719 36 78 24 170 72 232 121
58 46 140 158 152 208 4 17 12 36 18 44 15 20 15 353 0 372 -7 8 -15 29 -19
47 -3 17 -10 32 -15 32 -4 0 -11 11 -14 24 -14 56 -136 152 -268 210 l-53 24
68 32 c168 79 248 238 231 457 -6 71 -42 203 -56 203 -4 0 -8 5 -8 10 0 20
-63 95 -114 136 -84 67 -179 108 -316 134 -25 5 -264 9 -532 9 l-488 1 0
-1050z m877 690 c102 -11 150 -40 187 -112 22 -41 26 -63 26 -128 0 -44 -4
-82 -10 -85 -5 -3 -10 -14 -10 -23 0 -28 -47 -89 -82 -108 -28 -15 -70 -19
-296 -23 -145 -4 -266 -4 -268 -2 -7 7 -4 477 3 484 10 10 356 8 450 -3z m106
-848 c6 -5 24 -12 39 -16 34 -8 92 -65 111 -108 33 -77 37 -91 37 -141 0 -92
-44 -180 -109 -221 -63 -40 -151 -51 -406 -51 l-230 0 -3 265 c-1 146 0 270 2
277 6 15 539 11 559 -5z" fill="url(#logoGradient)"/>
<path d="M5612 3213 l3 -1048 213 0 212 0 3 1048 2 1047 -218 0 -217 0 2
-1047z" fill="url(#logoGradient)"/>
<path d="M7408 3888 c2 -270 -1 -374 -9 -382 -8 -8 -13 -7 -17 4 -11 32 -156
169 -205 195 -100 52 -227 66 -364 40 -51 -10 -96 -22 -99 -26 -3 -5 -11 -9
-19 -9 -24 0 -138 -72 -189 -119 -56 -53 -98 -111 -141 -197 -28 -56 -42 -94
-77 -214 -17 -59 -18 -408 -1 -465 6 -22 19 -64 28 -93 14 -46 61 -150 100
-221 41 -73 188 -192 285 -229 94 -36 260 -51 350 -32 130 28 150 40 252 141
54 54 100 94 102 90 3 -4 5 -52 4 -106 l0 -100 211 0 211 0 3 1048 2 1047
-215 0 -215 0 3 -372z m-223 -507 c57 -27 121 -85 156 -141 41 -65 69 -184 69
-290 0 -105 -10 -157 -54 -270 -22 -58 -135 -167 -182 -176 -19 -3 -37 -10
-40 -15 -15 -25 -244 6 -244 33 0 4 -6 8 -14 8 -24 0 -101 85 -129 142 -40 80
-50 130 -54 273 -3 100 0 143 12 185 39 131 98 210 191 255 40 20 65 24 139
25 79 0 97 -4 150 -29z" fill="url(#logoGradient)"/>
<path d="M4465 3741 c-178 -35 -285 -92 -401 -215 -95 -100 -91 -95 -130 -176
-69 -142 -89 -231 -89 -395 0 -151 20 -254 71 -372 8 -17 14 -34 14 -37 0 -11
65 -112 100 -154 19 -24 60 -63 90 -88 30 -24 60 -48 67 -54 15 -13 126 -64
173 -80 59 -20 191 -40 270 -40 216 0 414 76 549 211 50 51 111 132 111 149 0
5 5 10 10 10 6 0 10 5 10 11 0 9 11 37 50 124 30 67 52 254 44 370 -6 84 -29
208 -45 237 -5 10 -9 24 -9 31 0 21 -66 144 -102 190 -92 118 -214 205 -354
253 -115 39 -301 50 -429 25z m236 -331 c102 -19 168 -68 218 -163 88 -165 90
-431 6 -593 -37 -70 -73 -107 -140 -145 -57 -31 -65 -33 -160 -33 -119 1 -166
18 -236 88 -45 45 -52 56 -83 126 -51 115 -55 387 -6 495 5 11 16 36 25 56 21
48 86 114 138 141 65 34 152 44 238 28z" fill="url(#logoGradient)"/>
<path d="M10369 3745 c-53 -7 -118 -21 -145 -29 -177 -58 -313 -182 -357 -325
-23 -72 -23 -211 0 -273 38 -106 147 -204 270 -243 32 -10 67 -21 78 -26 11
-4 38 -10 60 -14 125 -19 330 -68 375 -89 121 -59 121 -211 0 -276 -31 -17
-118 -38 -145 -35 -70 7 -135 20 -171 36 -59 25 -124 86 -146 137 -15 33 -23
42 -36 37 -9 -4 -51 -11 -92 -16 -41 -6 -95 -14 -120 -19 -25 -5 -62 -11 -82
-15 -31 -5 -38 -10 -38 -28 1 -62 104 -238 167 -286 15 -11 33 -25 39 -30 6
-5 36 -21 67 -36 139 -65 348 -96 525 -76 59 6 132 19 162 29 125 39 252 140
299 237 13 28 28 58 33 68 16 32 26 188 17 261 -16 127 -75 204 -205 267 -84
41 -188 70 -449 125 -127 26 -178 45 -211 76 -44 42 -56 88 -37 143 27 79 101
115 239 115 51 0 96 -4 99 -10 3 -5 13 -10 22 -10 49 0 135 -70 161 -133 l17
-39 85 6 c47 4 125 9 173 13 l88 6 -6 46 c-17 124 -136 275 -265 337 -95 46
-115 52 -222 69 -113 17 -121 17 -249 0z" fill="url(#logoGradient)"/>
<path d="M11898 3744 c-286 -44 -517 -253 -598 -539 -44 -151 -36 -416 16
-570 92 -274 332 -462 630 -494 137 -14 313 9 424 55 148 63 261 170 327 312
19 40 33 75 31 77 -4 5 -106 19 -238 35 -47 6 -92 12 -100 14 -9 3 -27 -12
-45 -37 -35 -48 -110 -102 -163 -117 -66 -19 -167 -23 -238 -10 -136 26 -212
102 -263 265 -7 22 -11 56 -9 75 l3 35 544 0 544 0 -6 145 c-8 187 -33 281
-111 413 -111 188 -295 307 -525 342 -116 17 -109 17 -223 -1z m220 -300 c89
-26 161 -83 211 -167 24 -40 61 -133 61 -154 0 -10 -77 -13 -360 -13 -256 0
-360 3 -360 11 0 26 33 135 51 168 70 133 242 200 397 155z" fill="url(#logoGradient)"/>
<path d="M8807 3740 c-26 -5 -67 -20 -91 -34 -58 -34 -152 -131 -177 -184 -12
-23 -25 -39 -30 -36 -6 3 -9 57 -8 122 l1 117 -196 0 -196 0 -3 -778 c-1 -427
0 -777 3 -777 3 0 96 -1 208 -3 l202 -2 0 451 c0 487 2 508 56 594 72 115 226
173 402 151 l62 -7 0 191 0 192 -67 6 c-80 8 -101 7 -166 -3z" fill="url(#logoGradient)"/>
<path d="M9215 3718 c-3 -7 -4 -359 -3 -781 l3 -768 198 -2 197 -2 0 783 0
782 -195 0 c-147 0 -197 -3 -200 -12z" fill="url(#logoGradient)"/>
<path d="M8021 1534 c-59 -49 -31 -134 43 -134 50 0 80 29 79 76 -1 29 -8 44
-30 61 -36 29 -54 29 -92 -3z" fill="url(#logoGradient)"/>
<path d="M10123 1540 c-63 -28 -94 -83 -100 -181 l-6 -79 -43 0 -44 0 0 -50 0
-50 45 0 45 0 2 -281 3 -281 63 -1 62 -2 0 283 0 282 74 0 73 0 0 50 -1 49
-70 3 -71 3 -3 52 c-4 62 8 87 49 108 22 12 38 13 64 6 18 -5 35 -8 37 -6 2 2
1 28 0 59 l-4 56 -66 -1 c-42 0 -83 -7 -109 -19z" fill="url(#logoGradient)"/>
<path d="M2090 1071 l0 -461 195 0 c255 0 336 20 413 100 115 119 61 313 -100
364 -27 8 -22 21 15 34 128 46 150 256 37 347 -66 54 -131 66 -372 72 l-188 4
0 -460z m431 318 c54 -30 64 -48 64 -119 0 -63 -2 -68 -33 -97 -41 -37 -71
-43 -219 -43 l-113 0 0 141 0 142 138 -5 c91 -4 146 -10 163 -19z m26 -396
c46 -21 67 -59 67 -118 0 -36 -6 -60 -22 -82 -38 -53 -73 -63 -231 -63 l-141
0 0 138 c0 76 2 141 5 144 12 12 291 -5 322 -19z" fill="url(#logoGradient)"/>
<path d="M3942 1073 l3 -458 68 -3 67 -3 0 41 c0 22 2 40 5 40 3 0 16 -11 28
-23 60 -65 204 -82 293 -37 60 32 125 105 147 167 20 59 24 235 6 280 -47 118
-102 179 -189 207 -52 17 -145 22 -154 7 -3 -4 -19 -11 -34 -14 -16 -3 -43
-17 -60 -31 -16 -15 -33 -26 -36 -26 -3 0 -6 70 -6 155 l0 155 -70 0 -70 0 2
-457z m362 108 c83 -20 136 -111 136 -233 0 -106 -37 -186 -101 -219 -80 -40
-177 -13 -226 64 -24 37 -28 54 -31 143 -4 85 -1 107 16 145 41 89 109 122
206 100z" fill="url(#logoGradient)"/>
<path d="M5470 1070 l0 -460 65 0 65 0 0 460 0 460 -65 0 -65 0 0 -460z" fill="url(#logoGradient)"/>
<path d="M6249 1523 c0 -5 0 -77 1 -160 1 -109 -2 -153 -10 -153 -6 0 -24 13
-40 29 -32 32 -111 61 -165 61 -92 0 -204 -69 -239 -147 -10 -21 -23 -49 -29
-61 -17 -34 -15 -242 2 -278 7 -16 20 -44 29 -62 42 -89 137 -146 242 -146 75
0 120 17 164 63 17 17 33 31 38 31 4 0 8 -20 8 -45 l0 -45 65 0 65 0 0 460 0
460 -65 0 c-36 0 -65 -3 -66 -7z m-88 -360 c14 -8 38 -36 54 -62 27 -43 29
-53 30 -146 0 -105 -11 -141 -59 -193 -61 -67 -184 -67 -241 0 -45 52 -59 96
-59 187 0 167 72 250 204 234 25 -3 57 -12 71 -20z" fill="url(#logoGradient)"/>
<path d="M7190 1073 l0 -458 65 0 65 0 2 180 3 180 70 3 c95 4 108 -1 131 -48
10 -22 22 -40 27 -40 4 0 7 -6 8 -12 0 -7 35 -69 77 -137 l77 -123 73 -2 c39
0 72 2 72 6 0 8 -91 161 -100 168 -4 3 -10 12 -14 20 -4 8 -12 24 -19 35 -50
81 -87 148 -85 150 2 1 24 12 50 24 63 30 103 73 122 131 42 127 -1 260 -104
325 -58 37 -179 55 -361 55 l-159 0 0 -457z m427 318 c98 -45 111 -201 23
-268 -48 -37 -82 -44 -200 -41 l-115 3 -3 163 -2 162 127 0 c104 0 136 -4 170
-19z" fill="url(#logoGradient)"/>
<path d="M11797 1375 c-3 -41 -8 -79 -12 -85 -3 -5 -22 -10 -41 -10 l-34 0 0
-50 0 -50 39 0 39 0 4 -227 c3 -207 5 -231 24 -263 31 -55 92 -80 184 -77 l75
2 3 58 3 57 -59 0 c-96 0 -96 2 -100 246 l-3 204 64 0 65 0 4 50 3 49 -65 3
-65 3 -3 83 -3 82 -58 0 -58 0 -6 -75z" fill="url(#logoGradient)"/>
<path d="M3070 1281 c-90 -32 -156 -89 -175 -151 -4 -14 -13 -31 -19 -39 -7
-9 -11 -60 -11 -135 0 -112 2 -125 28 -178 32 -65 87 -118 154 -150 39 -18 65
-22 140 -22 50 0 98 5 105 11 7 6 25 13 40 17 34 8 105 78 122 120 l12 31 -55
12 -56 11 -40 -37 c-22 -21 -53 -43 -68 -49 -34 -15 -113 -16 -122 -2 -3 6
-14 10 -24 10 -39 0 -105 104 -99 155 l3 27 238 -1 237 -2 0 77 c0 114 -49
208 -140 265 -75 47 -188 60 -270 30z m165 -102 c50 -14 72 -33 97 -86 36 -77
35 -78 -150 -81 -202 -4 -204 -3 -167 83 35 78 121 111 220 84z" fill="url(#logoGradient)"/>
<path d="M4935 1291 c-3 -6 -15 -11 -25 -11 -58 0 -155 -84 -191 -165 -20 -42
-23 -68 -24 -165 0 -99 3 -122 23 -163 31 -66 83 -120 147 -153 47 -23 67 -27
142 -27 76 -1 96 3 145 27 58 27 116 84 144 141 25 50 36 166 24 251 -8 61
-18 88 -48 133 -40 60 -101 107 -160 124 -56 15 -169 20 -177 8z m128 -110
c84 -20 118 -79 125 -217 3 -86 1 -107 -16 -145 -33 -71 -87 -109 -156 -109
-79 0 -133 34 -172 110 -27 53 -26 210 3 265 46 88 116 119 216 96z" fill="url(#logoGradient)"/>
<path d="M8411 1283 c-59 -21 -128 -90 -137 -138 -9 -50 2 -121 23 -149 31
-41 95 -71 188 -90 150 -30 185 -48 185 -99 0 -21 -10 -39 -36 -63 -32 -31
-41 -34 -93 -34 -71 0 -115 20 -144 67 -22 34 -23 34 -77 28 -30 -4 -58 -9
-62 -11 -4 -3 5 -28 20 -56 27 -52 90 -108 123 -108 10 0 21 -5 24 -10 3 -6
50 -10 105 -10 136 0 199 28 255 115 28 43 28 164 0 195 -36 41 -89 66 -175
84 -188 38 -210 50 -210 114 0 62 109 103 187 70 35 -15 83 -58 83 -74 0 -10
14 -12 53 -8 79 8 78 7 60 54 -21 52 -80 103 -143 124 -61 20 -171 19 -229 -1z" fill="url(#logoGradient)"/>
<path d="M9124 1285 c-96 -30 -148 -77 -188 -168 -22 -49 -26 -72 -26 -156 0
-167 49 -263 163 -320 58 -28 74 -31 153 -31 78 0 96 4 147 29 31 16 63 36 71
44 20 19 56 80 56 93 0 5 -24 15 -52 21 -52 10 -53 10 -78 -19 -55 -67 -161
-87 -235 -45 -44 25 -97 114 -93 157 l3 25 242 3 242 2 -6 78 c-3 42 -9 82
-13 87 -4 6 -10 22 -13 36 -8 34 -79 114 -120 134 -86 44 -175 55 -253 30z
m147 -100 c67 -24 106 -68 123 -137 l6 -28 -180 0 c-201 0 -197 -2 -166 71 19
46 54 77 107 93 58 18 60 18 110 1z" fill="url(#logoGradient)"/>
<path d="M10546 1279 c-54 -20 -109 -67 -131 -113 -21 -41 -20 -43 33 -50 26
-4 54 -9 62 -11 9 -3 21 8 31 27 21 44 64 67 124 67 84 0 135 -44 135 -117 0
-42 -22 -51 -150 -62 -157 -14 -224 -49 -270 -138 -46 -88 -9 -196 86 -249 30
-16 57 -22 115 -22 87 -1 124 13 182 67 20 20 38 32 38 27 1 -6 2 -28 3 -49
l1 -40 62 0 63 -1 0 251 c0 138 -3 266 -6 284 -10 48 -79 114 -141 134 -68 21
-174 19 -237 -5z m252 -398 c-5 -67 -31 -110 -89 -147 -82 -51 -200 -19 -212
58 -6 42 15 89 51 110 36 21 221 51 246 39 4 -2 6 -29 4 -60z" fill="url(#logoGradient)"/>
<path d="M11240 1288 c-118 -48 -160 -98 -160 -190 0 -45 5 -62 30 -97 43 -58
88 -77 287 -116 98 -19 112 -113 25 -162 -12 -7 -48 -13 -80 -13 -70 0 -118
27 -142 77 -8 18 -21 31 -27 28 -7 -2 -35 -7 -63 -11 -27 -4 -50 -8 -50 -9 0
-22 45 -98 71 -120 60 -50 110 -65 217 -65 86 0 103 4 152 28 92 46 137 143
111 240 -17 63 -65 96 -175 122 -143 33 -200 51 -213 69 -14 18 -16 50 -7 76
8 21 85 55 124 55 49 0 116 -35 131 -68 13 -29 14 -30 73 -25 34 3 63 7 65 9
2 2 -4 22 -14 44 -25 56 -75 101 -132 122 -54 19 -184 23 -223 6z" fill="url(#logoGradient)"/>
<path d="M8002 949 l3 -332 60 0 60 0 3 332 2 331 -65 0 -65 0 2 -331z" fill="url(#logoGradient)"/>
<path d="M12215 775 c-34 -33 -35 -96 -1 -130 39 -39 71 -42 111 -11 31 24 35
32 35 75 0 37 -5 52 -23 69 -33 31 -90 30 -122 -3z" fill="url(#logoGradient)"/>
<path d="M6553 772 c-29 -22 -38 -63 -24 -105 21 -63 100 -77 150 -26 40 40
41 82 4 121 -32 33 -94 38 -130 10z" fill="url(#logoGradient)"/>
</g>
</svg>
