<svg width="32" height="32" viewBox="0 0 32 32" fill="none" xmlns="http://www.w3.org/2000/svg">
<path d="M0 8C0 6.93913 0.421427 5.92172 1.17157 5.17157C1.92172 4.42143 2.93913 4 4 4H28C29.0609 4 30.0783 4.42143 30.8284 5.17157C31.5786 5.92172 32 6.93913 32 8V24C32 25.0609 31.5786 26.0783 30.8284 26.8284C30.0783 27.5786 29.0609 28 28 28H4C2.93913 28 1.92172 27.5786 1.17157 26.8284C0.421427 26.0783 0 25.0609 0 24V8ZM4 6C3.46957 6 2.96086 6.21071 2.58579 6.58579C2.21071 6.96086 2 7.46957 2 8V8.434L16 16.834L30 8.434V8C30 7.46957 29.7893 6.96086 29.4142 6.58579C29.0391 6.21071 28.5304 6 28 6H4ZM30 10.766L20.584 16.416L30 22.21V10.766ZM29.932 24.518L18.652 17.576L16 19.166L13.348 17.576L2.068 24.516C2.18165 24.9416 2.43263 25.3178 2.78198 25.5861C3.13133 25.8544 3.55949 25.9999 4 26H28C28.4402 26.0001 28.8682 25.8548 29.2175 25.5869C29.5668 25.3189 29.818 24.9432 29.932 24.518V24.518ZM2 22.21L11.416 16.416L2 10.766V22.21Z" fill="#113E71"/>
</svg>
