<svg width="57" height="56" viewBox="0 0 57 56" fill="none" xmlns="http://www.w3.org/2000/svg">
<g clip-path="url(#clip0_88_254)">
<path fill-rule="evenodd" clip-rule="evenodd" d="M36.8859 21.6268C37.0518 21.7865 37.1834 21.9761 37.2732 22.1849C37.363 22.3937 37.4093 22.6176 37.4093 22.8437C37.4093 23.0697 37.363 23.2936 37.2732 23.5024C37.1834 23.7112 37.0518 23.9009 36.8859 24.0605L26.1984 34.373C26.033 34.5331 25.8364 34.6601 25.62 34.7467C25.4036 34.8334 25.1716 34.878 24.9373 34.878C24.703 34.878 24.471 34.8334 24.2546 34.7467C24.0382 34.6601 23.8417 34.5331 23.6762 34.373L18.3324 29.2168C18.1668 29.057 18.0355 28.8673 17.9458 28.6585C17.8562 28.4497 17.8101 28.2259 17.8101 27.9999C17.8101 27.7739 17.8562 27.5501 17.9458 27.3414C18.0355 27.1326 18.1668 26.9428 18.3324 26.783C18.4981 26.6232 18.6947 26.4965 18.9111 26.41C19.1274 26.3235 19.3594 26.279 19.5936 26.279C19.8278 26.279 20.0597 26.3235 20.2761 26.41C20.4925 26.4965 20.6891 26.6232 20.8547 26.783L24.9373 30.7259L34.3637 21.6268C34.5292 21.4667 34.7257 21.3397 34.9421 21.2531C35.1585 21.1664 35.3905 21.1218 35.6248 21.1218C35.8591 21.1218 36.0911 21.1664 36.3075 21.2531C36.5239 21.3397 36.7205 21.4667 36.8859 21.6268Z" fill="#113E71"/>
<path d="M36.5974 9.13836L33.3163 5.89336L35.8635 3.49398L38.0794 5.68367L41.25 5.64586C42.6225 5.63018 43.9843 5.87946 45.2555 6.37903C46.5266 6.87861 47.6814 7.61839 48.652 8.55487C49.6225 9.49136 50.3892 10.6056 50.9069 11.8322C51.4247 13.0587 51.683 14.3728 51.6668 15.6971L51.6311 18.7565L53.8969 20.8946C54.8782 21.8199 55.658 22.9251 56.1903 24.1453C56.7227 25.3655 56.997 26.676 56.997 27.9999C56.997 29.3238 56.7227 30.6344 56.1903 31.8546C55.658 33.0748 54.8782 34.18 53.8969 35.1052L51.6276 37.2434L51.6668 40.3027C51.683 41.627 51.4247 42.9411 50.9069 44.1676C50.3892 45.3942 49.6225 46.5085 48.652 47.445C47.6814 48.3815 46.5266 49.1212 45.2555 49.6208C43.9843 50.1204 42.6225 50.3697 41.25 50.354L38.0794 50.3196L35.8635 52.5059C34.9046 53.4527 33.7592 54.2051 32.4946 54.7188C31.2301 55.2325 29.8719 55.4972 28.4998 55.4972C27.1278 55.4972 25.7696 55.2325 24.505 54.7188C23.2404 54.2051 22.0951 53.4527 21.1361 52.5059L18.9203 50.3162L15.7496 50.354C14.3772 50.3697 13.0153 50.1204 11.7442 49.6208C10.473 49.1212 9.31822 48.3815 8.34768 47.445C7.37714 46.5085 6.61046 45.3942 6.09272 44.1676C5.57498 42.9411 5.31664 41.627 5.33288 40.3027L5.36851 37.2434L3.10276 35.1052C2.12143 34.18 1.34167 33.0748 0.809301 31.8546C0.276929 30.6344 0.00268555 29.3238 0.00268555 27.9999C0.00268555 26.676 0.276929 25.3655 0.809301 24.1453C1.34167 22.9251 2.12143 21.8199 3.10276 20.8946L5.37207 18.7565L5.33288 15.6971C5.31664 14.3728 5.57498 13.0587 6.09272 11.8322C6.61046 10.6056 7.37714 9.49136 8.34768 8.55487C9.31822 7.61839 10.473 6.87861 11.7442 6.37903C13.0153 5.87946 14.3772 5.63018 15.7496 5.64586L18.9203 5.68023L21.1361 3.49398C22.0951 2.54709 23.2404 1.79469 24.505 1.281C25.7696 0.767307 27.1278 0.502686 28.4998 0.502686C29.8719 0.502686 31.2301 0.767307 32.4946 1.281C33.7592 1.79469 34.9046 2.54709 35.8635 3.49398L33.3163 5.89336C32.6892 5.27387 31.94 4.78162 31.1129 4.44553C30.2857 4.10945 29.3973 3.93632 28.4998 3.93632C27.6023 3.93632 26.7139 4.10945 25.8868 4.44553C25.0596 4.78162 24.3105 5.27387 23.6833 5.89336L20.4058 9.13836L15.7033 9.08336C14.8062 9.07368 13.9161 9.2371 13.0854 9.56401C12.2546 9.89093 11.5 10.3747 10.8658 10.987C10.2315 11.5993 9.73051 12.3278 9.39215 13.1295C9.05378 13.9313 8.88488 14.7902 8.89538 15.6559L8.95238 20.1865L5.58938 23.3524C4.94737 23.9576 4.43722 24.6804 4.08891 25.4785C3.74061 26.2767 3.56118 27.1339 3.56118 27.9999C3.56118 28.8659 3.74061 29.7232 4.08891 30.5213C4.43722 31.3194 4.94737 32.0423 5.58938 32.6474L8.95238 35.8099L8.89538 40.3474C8.88535 41.2131 9.05471 42.0719 9.39352 42.8735C9.73232 43.6751 10.2337 44.4033 10.8683 45.0152C11.5029 45.6272 12.2578 46.1106 13.0887 46.4371C13.9196 46.7636 14.8098 46.9266 15.7069 46.9165L20.4023 46.8615L23.6833 50.1065C24.3105 50.726 25.0596 51.2182 25.8868 51.5543C26.7139 51.8904 27.6023 52.0635 28.4998 52.0635C29.3973 52.0635 30.2857 51.8904 31.1129 51.5543C31.94 51.2182 32.6892 50.726 33.3163 50.1065L36.5938 46.8615L41.2963 46.9165C42.1934 46.9262 43.0835 46.7627 43.9142 46.4358C44.745 46.1089 45.4996 45.6251 46.1339 45.0128C46.7681 44.4005 47.2691 43.6721 47.6075 42.8703C47.9459 42.0685 48.1148 41.2096 48.1043 40.344L48.0473 35.8134L51.4103 32.6474C52.0523 32.0423 52.5624 31.3194 52.9107 30.5213C53.259 29.7232 53.4385 28.8659 53.4385 27.9999C53.4385 27.1339 53.259 26.2767 52.9107 25.4785C52.5624 24.6804 52.0523 23.9576 51.4103 23.3524L48.0473 20.1899L48.1043 15.6524C48.1143 14.7868 47.9449 13.9279 47.6061 13.1263C47.2673 12.3248 46.7659 11.5966 46.1313 10.9846C45.4968 10.3726 44.7419 9.88919 43.9109 9.56269C43.08 9.2362 42.1899 9.07323 41.2928 9.08336L36.5974 9.13836Z" fill="#113E71"/>
</g>
<defs>
<clipPath id="clip0_88_254">
<rect width="57" height="55" fill="white" transform="translate(0 0.5)"/>
</clipPath>
</defs>
</svg>
