<svg width="32" height="32" viewBox="0 0 32 32" fill="none" xmlns="http://www.w3.org/2000/svg">
<g clip-path="url(#clip0_160_9)">
<path d="M20 6C20.5304 6 21.0391 6.21071 21.4142 6.58579C21.7893 6.96086 22 7.46957 22 8V24C22 24.5304 21.7893 25.0391 21.4142 25.4142C21.0391 25.7893 20.5304 26 20 26H12C11.4696 26 10.9608 25.7893 10.5858 25.4142C10.2107 25.0391 9.99999 24.5304 9.99999 24V8C9.99999 7.46957 10.2107 6.96086 10.5858 6.58579C10.9608 6.21071 11.4696 6 12 6H20ZM12 4C10.9391 4 9.9217 4.42143 9.17156 5.17157C8.42141 5.92172 7.99999 6.93913 7.99999 8V24C7.99999 25.0609 8.42141 26.0783 9.17156 26.8284C9.9217 27.5786 10.9391 28 12 28H20C21.0609 28 22.0783 27.5786 22.8284 26.8284C23.5786 26.0783 24 25.0609 24 24V8C24 6.93913 23.5786 5.92172 22.8284 5.17157C22.0783 4.42143 21.0609 4 20 4H12Z" fill="#113E71"/>
<path d="M16 24C16.5304 24 17.0391 23.7893 17.4142 23.4142C17.7893 23.0391 18 22.5304 18 22C18 21.4696 17.7893 20.9609 17.4142 20.5858C17.0391 20.2107 16.5304 20 16 20C15.4696 20 14.9608 20.2107 14.5858 20.5858C14.2107 20.9609 14 21.4696 14 22C14 22.5304 14.2107 23.0391 14.5858 23.4142C14.9608 23.7893 15.4696 24 16 24ZM3.19799 8.116C3.3141 8.17744 3.41697 8.26114 3.50072 8.36235C3.58447 8.46355 3.64746 8.58026 3.68609 8.70581C3.72472 8.83137 3.73824 8.9633 3.72587 9.09408C3.71349 9.22486 3.67548 9.35192 3.61399 9.468C2.55048 11.4808 1.99632 13.7235 1.99999 16C1.99999 18.36 2.58399 20.584 3.61399 22.532C3.73811 22.7665 3.76401 23.0406 3.68599 23.2942C3.60798 23.5477 3.43244 23.7599 3.19799 23.884C2.96353 24.0081 2.68938 24.034 2.43583 23.956C2.18228 23.878 1.97011 23.7025 1.84599 23.468C0.630033 21.1668 -0.00376561 18.6027 -1.39588e-05 16C-1.39588e-05 13.306 0.667986 10.762 1.84599 8.532C1.90742 8.41589 1.99113 8.31302 2.09233 8.22927C2.19354 8.14552 2.31025 8.08253 2.4358 8.0439C2.56135 8.00526 2.69329 7.99175 2.82407 8.00412C2.95484 8.01649 3.0819 8.05451 3.19799 8.116ZM28.802 8.116C28.9181 8.05451 29.0451 8.01649 29.1759 8.00412C29.3067 7.99175 29.4386 8.00526 29.5642 8.0439C29.6897 8.08253 29.8064 8.14552 29.9076 8.22927C30.0088 8.31302 30.0926 8.41589 30.154 8.532C31.37 10.8332 32.0038 13.3973 32 16C32.0038 18.6027 31.37 21.1668 30.154 23.468C30.0299 23.7025 29.8177 23.878 29.5641 23.956C29.3106 24.034 29.0364 24.0081 28.802 23.884C28.5675 23.7599 28.392 23.5477 28.314 23.2942C28.236 23.0406 28.2619 22.7665 28.386 22.532C29.4495 20.5192 30.0037 18.2765 30 16C30 13.64 29.416 11.416 28.386 9.468C28.3245 9.35192 28.2865 9.22486 28.2741 9.09408C28.2617 8.9633 28.2753 8.83137 28.3139 8.70581C28.3525 8.58026 28.4155 8.46355 28.4993 8.36235C28.583 8.26114 28.6859 8.17744 28.802 8.116ZM6.11399 11.068C6.23642 11.1157 6.34825 11.1871 6.44307 11.2781C6.5379 11.3691 6.61386 11.4779 6.66661 11.5983C6.71936 11.7186 6.74787 11.8482 6.75051 11.9796C6.75315 12.111 6.72986 12.2416 6.68199 12.364C6.22986 13.5229 5.99855 14.7561 5.99999 16C5.99999 17.284 6.23999 18.51 6.67999 19.636C6.7358 19.7596 6.76588 19.8933 6.76841 20.0289C6.77094 20.1645 6.74586 20.2992 6.6947 20.4247C6.64355 20.5503 6.56737 20.6642 6.47082 20.7595C6.37427 20.8547 6.25935 20.9293 6.13306 20.9787C6.00677 21.0282 5.87175 21.0514 5.7362 21.047C5.60065 21.0426 5.46741 21.0107 5.34459 20.9532C5.22176 20.8957 5.11192 20.8138 5.02173 20.7125C4.93155 20.6112 4.86291 20.4926 4.81999 20.364C4.27692 18.9732 3.9988 17.4931 3.99999 16C3.99999 14.462 4.28999 12.99 4.81999 11.636C4.91642 11.3892 5.10685 11.1908 5.34947 11.0843C5.59209 10.9778 5.86705 10.9719 6.11399 11.068ZM25.886 11.068C26.0084 11.0201 26.139 10.9968 26.2704 10.9995C26.4018 11.0021 26.5314 11.0306 26.6517 11.0834C26.7721 11.1361 26.8809 11.2121 26.9719 11.3069C27.0628 11.4017 27.1342 11.5136 27.182 11.636C27.71 12.99 28 14.462 28 16C28 17.538 27.71 19.01 27.18 20.364C27.0745 20.5977 26.8833 20.7819 26.6458 20.8786C26.4084 20.9753 26.1429 20.9771 25.9041 20.8837C25.6654 20.7902 25.4716 20.6087 25.3629 20.3765C25.2542 20.1443 25.2388 19.8792 25.32 19.636C25.76 18.51 26 17.284 26 16C26 14.716 25.76 13.49 25.32 12.364C25.2232 12.1171 25.2284 11.8418 25.3346 11.5988C25.4407 11.3557 25.6391 11.1648 25.886 11.068Z" fill="#113E71"/>
</g>
<defs>
<clipPath id="clip0_160_9">
<rect width="32" height="32" fill="white"/>
</clipPath>
</defs>
</svg>
