<svg width="57" height="58" viewBox="0 0 57 58" fill="none" xmlns="http://www.w3.org/2000/svg">
<path d="M17.8125 22.7656C17.8125 23.4743 17.531 24.1539 17.03 24.6549C16.5289 25.156 15.8493 25.4375 15.1406 25.4375C14.432 25.4375 13.7524 25.156 13.2513 24.6549C12.7503 24.1539 12.4688 23.4743 12.4688 22.7656C12.4688 22.057 12.7503 21.3774 13.2513 20.8763C13.7524 20.3753 14.432 20.0938 15.1406 20.0938C15.8493 20.0938 16.5289 20.3753 17.03 20.8763C17.531 21.3774 17.8125 22.057 17.8125 22.7656ZM21.8666 17.4361C23.9821 16.8323 26.1718 16.5277 28.3718 16.5313C30.7444 16.5313 33.0137 16.8768 35.1156 17.5038C35.5648 17.6277 36.0446 17.5707 36.4522 17.3449C36.8598 17.1192 37.1627 16.7427 37.296 16.2962C37.4293 15.8498 37.3824 15.3688 37.1652 14.9566C36.9481 14.5443 36.578 14.2336 36.1345 14.0909C33.6151 13.3422 31.0001 12.9642 28.3718 12.9688C25.7569 12.9688 23.2382 13.3357 20.8834 14.009C20.4289 14.1394 20.0449 14.445 19.8157 14.8585C19.5866 15.2721 19.5311 15.7597 19.6615 16.2142C19.7918 16.6687 20.0974 17.0527 20.511 17.2819C20.9245 17.511 21.4122 17.5665 21.8666 17.4361Z" fill="#113E71"/>
<path fill-rule="evenodd" clip-rule="evenodd" d="M28.3718 5.93994C17.7662 5.93994 8.52509 12.0104 5.85677 20.6353H3.8974C3.37802 20.6358 2.86505 20.75 2.39442 20.9696C1.9238 21.1893 1.5069 21.5093 1.17293 21.907C0.838968 22.3048 0.596018 22.7708 0.461101 23.2723C0.326185 23.7739 0.302566 24.2989 0.391899 24.8105L1.29677 30.0118C1.51241 31.2517 2.15881 32.3758 3.12205 33.1859C4.08529 33.996 5.30355 34.4401 6.56215 34.4399H7.49909C8.56784 36.2675 9.95009 37.9241 11.5781 39.3633L8.98109 48.1876C8.90299 48.4533 8.88792 48.7336 8.93707 49.0061C8.98623 49.2786 9.09825 49.5359 9.26424 49.7576C9.43024 49.9793 9.64563 50.1592 9.89331 50.2831C10.141 50.4069 10.4142 50.4714 10.6911 50.4712H17.8161C18.1836 50.4712 18.5422 50.3576 18.8426 50.1459C19.143 49.9341 19.3705 49.6346 19.494 49.2884L21.2111 44.4755C23.4733 45.0918 25.878 45.4267 28.3753 45.4267C30.894 45.4267 33.3201 45.0883 35.6001 44.4577L37.5345 49.3454C37.666 49.6775 37.8942 49.9625 38.1896 50.1632C38.485 50.3639 38.8339 50.4713 39.1911 50.4712H46.3161C46.594 50.4709 46.8681 50.4056 47.1162 50.2804C47.3644 50.1553 47.5799 49.9738 47.7454 49.7505C47.9108 49.5272 48.0218 49.2683 48.0693 48.9944C48.1168 48.7206 48.0996 48.4394 48.019 48.1734L45.3079 39.2458C49.1982 35.7509 51.6563 30.9914 51.6563 25.6833C51.6563 25.1668 51.6313 24.6502 51.585 24.1479C52.5148 23.756 53.3948 23.2003 54.0966 22.5661C55.2188 23.6563 57 23.6563 57 21.0806C57 21.875 55.2188 21.875 55.3577 20.9879C55.5074 20.702 55.6153 20.3961 55.6783 20.0795C55.7621 19.6669 55.7401 19.2398 55.6142 18.838C55.4884 18.4362 55.2629 18.0728 54.9587 17.7817C54.6379 17.451 54.2158 17.2371 53.7594 17.1738C53.3031 17.1106 52.8387 17.2016 52.44 17.4326C52.0735 17.6351 51.7608 17.9227 51.5284 18.271C51.2959 18.6194 51.1504 19.0185 51.1041 19.4347C51.0186 20.3004 51.3962 21.1447 52.2441 21.7646C51.9499 21.968 51.6415 22.1501 51.3214 22.3096C49.419 12.8191 39.6222 5.93994 28.3718 5.93994ZM8.96327 22.8013C10.5842 15.4411 18.4645 9.50244 28.3718 9.50244C39.5794 9.50244 48.0938 17.0336 48.0938 25.6833C48.0938 30.1507 45.8708 34.2689 42.1444 37.2543C41.8674 37.4771 41.6635 37.7776 41.5587 38.1173C41.454 38.4569 41.4532 38.8202 41.5566 39.1603L43.9078 46.9087H40.3988L38.2969 41.6113C38.1277 41.1844 37.8001 40.8393 37.3826 40.6482C36.9651 40.457 36.4898 40.4345 36.0561 40.5853C33.7013 41.4046 31.1042 41.8642 28.3718 41.8642C25.7568 41.8709 23.1593 41.4386 20.6875 40.5853C20.2438 40.431 19.7571 40.4583 19.3335 40.6611C18.9098 40.864 18.5834 41.2259 18.4253 41.6683L16.555 46.9087H13.0673L15.3223 39.2493C15.423 38.908 15.419 38.5444 15.3111 38.2053C15.2032 37.8662 14.9961 37.5673 14.7167 37.3469C12.8107 35.8717 11.2496 33.9981 10.1425 31.8571C9.99417 31.5628 9.76714 31.3155 9.48663 31.1425C9.20612 30.9695 8.88313 30.8778 8.55359 30.8774H6.55859C6.13963 30.877 5.73425 30.7289 5.41369 30.4591C5.09312 30.1894 4.8779 29.8153 4.80584 29.4026L3.90096 24.2013H7.22477C7.63072 24.201 8.02436 24.062 8.34053 23.8074C8.65669 23.5528 8.8764 23.1978 8.96327 22.8013ZM53.9256 19.7482C53.8622 20.019 53.7433 20.2737 53.5765 20.4963C53.5232 20.4685 53.4709 20.4388 53.4197 20.4073C52.8996 20.0866 52.8604 19.7838 52.8782 19.6128C52.8957 19.485 52.9425 19.3629 53.0147 19.256C53.087 19.1492 53.1829 19.0604 53.295 18.9965C53.4696 18.9003 53.58 18.9217 53.6976 19.0393C53.7966 19.1254 53.8702 19.237 53.9104 19.3619C53.9506 19.4869 53.9559 19.6205 53.9256 19.7482Z" fill="#113E71"/>
</svg>
