<svg width="57" height="58" viewBox="0 0 57 58" fill="none" xmlns="http://www.w3.org/2000/svg">
<g clip-path="url(#clip0_88_258)">
<path d="M7.78017e-09 12.9688C7.78017e-09 11.5515 0.563001 10.1923 1.56515 9.19015C2.5673 8.188 3.9265 7.625 5.34375 7.625H37.4062C38.8235 7.625 40.1827 8.188 41.1849 9.19015C42.187 10.1923 42.75 11.5515 42.75 12.9688V18.3125H46.3838C47.1844 18.3132 47.9746 18.4938 48.6961 18.841C49.4175 19.1881 50.0517 19.693 50.5519 20.3182L55.8279 26.9088C56.5871 27.8571 57.0005 29.0357 57 30.2504V37.9062C57 39.3235 56.437 40.6827 55.4349 41.6849C54.4327 42.687 53.0735 43.25 51.6562 43.25H49.875C49.875 45.1397 49.1243 46.9519 47.7881 48.2881C46.4519 49.6243 44.6397 50.375 42.75 50.375C40.8603 50.375 39.0481 49.6243 37.7119 48.2881C36.3757 46.9519 35.625 45.1397 35.625 43.25H17.8125C17.8146 44.1997 17.6267 45.1402 17.26 46.0163C16.8934 46.8924 16.3552 47.6863 15.6773 48.3514C14.9994 49.0165 14.1953 49.5394 13.3124 49.8892C12.4295 50.2391 11.4856 50.409 10.5361 50.3888C9.58658 50.3686 8.6507 50.1588 7.78346 49.7717C6.91622 49.3846 6.13511 48.828 5.48606 48.1347C4.83702 47.4414 4.33313 46.6253 4.00402 45.7345C3.6749 44.8436 3.52721 43.8959 3.56962 42.9472C2.52598 42.5799 1.62209 41.8977 0.982695 40.9947C0.343303 40.0918 -5.96788e-05 39.0126 7.78017e-09 37.9062L7.78017e-09 12.9688ZM4.60988 39.5308C5.25398 38.4762 6.16139 37.6074 7.24291 37.0098C8.32444 36.4121 9.54287 36.1062 10.7784 36.122C12.014 36.1378 13.2242 36.4748 14.2901 37.1C15.356 37.7251 16.2408 38.6168 16.8577 39.6875H36.5798C37.2064 38.6055 38.1055 37.7064 39.1875 37.0797V12.9688C39.1875 12.4963 38.9998 12.0433 38.6658 11.7092C38.3317 11.3752 37.8787 11.1875 37.4062 11.1875H5.34375C4.87133 11.1875 4.41827 11.3752 4.08422 11.7092C3.75017 12.0433 3.5625 12.4963 3.5625 12.9688V37.9062C3.56222 38.2491 3.6609 38.5848 3.84668 38.8729C4.03247 39.1611 4.29747 39.3895 4.60988 39.5308ZM42.75 36.125C44.0007 36.125 45.2293 36.4543 46.3124 37.0796C47.3955 37.705 48.2949 38.6044 48.9202 39.6875H51.6562C52.1287 39.6875 52.5817 39.4998 52.9158 39.1658C53.2498 38.8317 53.4375 38.3787 53.4375 37.9062V30.2469C53.4368 29.8426 53.2986 29.4507 53.0456 29.1354L47.7731 22.5448C47.6065 22.3361 47.3952 22.1676 47.1547 22.0517C46.9142 21.9358 46.6507 21.8754 46.3838 21.875H42.75V36.125ZM10.6875 39.6875C9.74267 39.6875 8.83653 40.0628 8.16843 40.7309C7.50033 41.399 7.125 42.3052 7.125 43.25C7.125 44.1948 7.50033 45.101 8.16843 45.7691C8.83653 46.4372 9.74267 46.8125 10.6875 46.8125C11.6323 46.8125 12.5385 46.4372 13.2066 45.7691C13.8747 45.101 14.25 44.1948 14.25 43.25C14.25 42.3052 13.8747 41.399 13.2066 40.7309C12.5385 40.0628 11.6323 39.6875 10.6875 39.6875ZM42.75 39.6875C41.8052 39.6875 40.899 40.0628 40.2309 40.7309C39.5628 41.399 39.1875 42.3052 39.1875 43.25C39.1875 44.1948 39.5628 45.101 40.2309 45.7691C40.899 46.4372 41.8052 46.8125 42.75 46.8125C43.6948 46.8125 44.601 46.4372 45.2691 45.7691C45.9372 45.101 46.3125 44.1948 46.3125 43.25C46.3125 42.3052 45.9372 41.399 45.2691 40.7309C44.601 40.0628 43.6948 39.6875 42.75 39.6875Z" fill="#113E71"/>
</g>
<defs>
<clipPath id="clip0_88_258">
<rect width="57" height="57" fill="white" transform="translate(0 0.5)"/>
</clipPath>
</defs>
</svg>
